<?xml version="1.0" encoding="UTF-8"?>
<svg xmlns="http://www.w3.org/2000/svg" xmlns:xlink="http://www.w3.org/1999/xlink" width="420px" height="420px" viewBox="0 0 420 420" version="1.1">
<defs>
<clipPath id="clip1">
  <path d="M 140.703125 166.996094 L 279.296875 166.996094 L 279.296875 253.003906 L 140.703125 253.003906 Z M 140.703125 166.996094 "/>
</clipPath>
</defs>
<g id="surface1">
<rect x="0" y="0" width="420" height="420" style="fill:rgb(0%,0%,0%);fill-opacity:1;stroke:none;"/>
<path style=" stroke:none;fill-rule:nonzero;fill:rgb(100%,100%,100%);fill-opacity:1;" d="M 210.183594 214.324219 C 213.105469 214.324219 215.480469 211.949219 215.480469 209.03125 C 215.480469 206.109375 213.105469 203.734375 210.183594 203.734375 C 207.265625 203.734375 204.886719 206.109375 204.886719 209.03125 C 204.886719 211.949219 207.265625 214.324219 210.183594 214.324219 Z M 210.183594 205.769531 C 211.980469 205.769531 213.445312 207.230469 213.445312 209.03125 C 213.445312 210.828125 211.980469 212.289062 210.183594 212.289062 C 208.386719 212.289062 206.921875 210.828125 206.921875 209.03125 C 206.921875 207.230469 208.386719 205.769531 210.183594 205.769531 Z M 210.183594 205.769531 "/>
<path style=" stroke:none;fill-rule:nonzero;fill:rgb(100%,100%,100%);fill-opacity:1;" d="M 208.421875 201.984375 C 208.421875 202.394531 208.089844 202.726562 207.679688 202.726562 C 207.269531 202.726562 206.9375 202.394531 206.9375 201.984375 C 206.9375 201.574219 207.269531 201.242188 207.679688 201.242188 C 208.089844 201.242188 208.421875 201.574219 208.421875 201.984375 Z M 208.421875 201.984375 "/>
<path style=" stroke:none;fill-rule:nonzero;fill:rgb(100%,100%,100%);fill-opacity:1;" d="M 210.925781 201.984375 C 210.925781 202.394531 210.59375 202.726562 210.183594 202.726562 C 209.773438 202.726562 209.441406 202.394531 209.441406 201.984375 C 209.441406 201.574219 209.773438 201.242188 210.183594 201.242188 C 210.59375 201.242188 210.925781 201.574219 210.925781 201.984375 Z M 210.925781 201.984375 "/>
<path style=" stroke:none;fill-rule:nonzero;fill:rgb(100%,100%,100%);fill-opacity:1;" d="M 213.425781 201.984375 C 213.425781 202.394531 213.09375 202.726562 212.683594 202.726562 C 212.277344 202.726562 211.945312 202.394531 211.945312 201.984375 C 211.945312 201.574219 212.277344 201.242188 212.683594 201.242188 C 213.09375 201.242188 213.425781 201.574219 213.425781 201.984375 Z M 213.425781 201.984375 "/>
<path style=" stroke:none;fill-rule:nonzero;fill:rgb(100%,100%,100%);fill-opacity:1;" d="M 207.171875 199.949219 C 207.171875 200.359375 206.839844 200.691406 206.429688 200.691406 C 206.019531 200.691406 205.6875 200.359375 205.6875 199.949219 C 205.6875 199.539062 206.019531 199.207031 206.429688 199.207031 C 206.839844 199.207031 207.171875 199.539062 207.171875 199.949219 Z M 207.171875 199.949219 "/>
<path style=" stroke:none;fill-rule:nonzero;fill:rgb(100%,100%,100%);fill-opacity:1;" d="M 209.671875 199.949219 C 209.671875 200.359375 209.339844 200.691406 208.929688 200.691406 C 208.523438 200.691406 208.191406 200.359375 208.191406 199.949219 C 208.191406 199.539062 208.523438 199.207031 208.929688 199.207031 C 209.339844 199.207031 209.671875 199.539062 209.671875 199.949219 Z M 209.671875 199.949219 "/>
<path style=" stroke:none;fill-rule:nonzero;fill:rgb(100%,100%,100%);fill-opacity:1;" d="M 212.175781 199.949219 C 212.175781 200.359375 211.84375 200.691406 211.433594 200.691406 C 211.023438 200.691406 210.691406 200.359375 210.691406 199.949219 C 210.691406 199.539062 211.023438 199.207031 211.433594 199.207031 C 211.84375 199.207031 212.175781 199.539062 212.175781 199.949219 Z M 212.175781 199.949219 "/>
<path style=" stroke:none;fill-rule:nonzero;fill:rgb(100%,100%,100%);fill-opacity:1;" d="M 214.679688 199.949219 C 214.679688 200.359375 214.347656 200.691406 213.9375 200.691406 C 213.527344 200.691406 213.195312 200.359375 213.195312 199.949219 C 213.195312 199.539062 213.527344 199.207031 213.9375 199.207031 C 214.347656 199.207031 214.679688 199.539062 214.679688 199.949219 Z M 214.679688 199.949219 "/>
<g clip-path="url(#clip1)" clip-rule="nonzero">
<path style=" stroke:none;fill-rule:nonzero;fill:rgb(100%,100%,100%);fill-opacity:1;" d="M 279.292969 235.203125 C 276.164062 195.292969 268.914062 180.113281 263.730469 172.167969 L 263.449219 171.734375 C 260.21875 166.730469 252.667969 167.042969 251.515625 167.121094 C 250.695312 167.101562 246.414062 167.082031 239.539062 168.65625 L 232.398438 168.65625 C 232.023438 167.6875 231.109375 166.996094 230.039062 166.996094 L 189.554688 166.996094 C 188.484375 166.996094 187.570312 167.6875 187.195312 168.65625 L 180.464844 168.65625 C 173.585938 167.082031 169.304688 167.097656 168.484375 167.121094 C 167.335938 167.042969 159.78125 166.730469 156.550781 171.734375 L 156.269531 172.167969 C 151.085938 180.117188 143.835938 195.292969 140.710938 235.203125 C 140.703125 235.273438 140.703125 235.347656 140.703125 235.417969 C 140.871094 241.5 144.195312 253.003906 155.589844 253.003906 C 166.570312 253.003906 172.328125 244.671875 173.84375 240.257812 L 179.445312 223.796875 L 180.578125 222.75 C 182.863281 224.167969 185.554688 224.988281 188.4375 224.988281 C 191.554688 224.988281 194.453125 224.027344 196.851562 222.382812 C 196.964844 222.402344 197.082031 222.417969 197.203125 222.417969 L 223.191406 222.417969 C 225.582031 224.039062 228.460938 224.988281 231.5625 224.988281 C 234.441406 224.988281 237.132812 224.167969 239.417969 222.75 L 240.550781 223.796875 L 246.15625 240.261719 C 247.667969 244.671875 253.429688 253.003906 264.40625 253.003906 C 275.804688 253.003906 279.128906 241.5 279.292969 235.417969 C 279.296875 235.347656 279.296875 235.273438 279.292969 235.203125 Z M 236.097656 191.164062 C 236.097656 182.179688 243.40625 174.871094 252.386719 174.871094 C 256.386719 174.871094 260.050781 176.324219 262.886719 178.722656 C 264.519531 181.832031 266.53125 186.472656 268.515625 193.457031 C 267.398438 201.355469 260.59375 207.457031 252.386719 207.457031 C 243.40625 207.457031 236.097656 200.148438 236.097656 191.164062 Z M 235.140625 175.179688 C 235.140625 174.792969 235.636719 174.367188 236.351562 174.367188 C 237.066406 174.367188 237.566406 174.796875 237.566406 175.179688 L 237.566406 178.667969 C 237.566406 179.054688 237.070312 179.484375 236.351562 179.484375 C 235.640625 179.484375 235.140625 179.054688 235.140625 178.667969 Z M 239.769531 172.726562 C 239.925781 172.726562 240.078125 172.710938 240.230469 172.675781 C 247.273438 171.039062 251.433594 171.191406 251.464844 171.191406 C 251.554688 171.195312 251.648438 171.195312 251.734375 171.1875 C 253.453125 171.042969 258.292969 171.253906 260.027344 173.941406 L 260.320312 174.394531 C 260.398438 174.515625 260.480469 174.640625 260.566406 174.773438 C 258.101562 173.539062 255.324219 172.839844 252.386719 172.839844 C 247.417969 172.839844 242.90625 174.832031 239.601562 178.054688 L 239.601562 175.183594 C 239.601562 174.136719 238.957031 173.226562 238 172.730469 L 239.769531 172.730469 Z M 189.046875 169.625 C 189.046875 169.296875 189.273438 169.03125 189.554688 169.03125 L 230.039062 169.03125 C 230.316406 169.03125 230.546875 169.296875 230.546875 169.625 L 230.546875 191.5 C 230.546875 191.828125 230.316406 192.09375 230.039062 192.09375 L 189.554688 192.09375 C 189.273438 192.09375 189.046875 191.828125 189.046875 191.5 Z M 189.554688 194.132812 L 230.039062 194.132812 C 231.441406 194.132812 232.582031 192.953125 232.582031 191.503906 L 232.582031 172.726562 L 234.703125 172.726562 C 233.746094 173.222656 233.101562 174.136719 233.101562 175.179688 L 233.101562 178.667969 C 233.101562 180.242188 234.558594 181.519531 236.351562 181.519531 C 236.515625 181.519531 236.679688 181.507812 236.835938 181.484375 C 235.078125 184.296875 234.058594 187.613281 234.058594 191.164062 C 234.058594 192.625 234.238281 194.046875 234.5625 195.410156 C 233.582031 195.210938 232.582031 195.105469 231.5625 195.105469 C 223.324219 195.105469 216.621094 201.804688 216.621094 210.046875 C 216.621094 211.84375 216.9375 213.5625 217.523438 215.15625 L 202.476562 215.15625 C 203.0625 213.5625 203.378906 211.84375 203.378906 210.046875 C 203.378906 201.808594 196.675781 195.105469 188.4375 195.105469 C 187.417969 195.105469 186.417969 195.210938 185.4375 195.410156 C 185.765625 194.046875 185.941406 192.625 185.941406 191.164062 C 185.941406 187.628906 184.929688 184.324219 183.1875 181.519531 C 183.191406 181.519531 183.195312 181.519531 183.199219 181.519531 C 184.992188 181.519531 186.449219 180.242188 186.449219 178.667969 L 186.449219 175.179688 C 186.449219 174.136719 185.804688 173.222656 184.847656 172.726562 L 187.011719 172.726562 L 187.011719 191.503906 C 187.011719 192.953125 188.152344 194.132812 189.554688 194.132812 Z M 201.558594 217.191406 L 218.445312 217.191406 C 218.660156 217.589844 218.898438 217.972656 219.144531 218.347656 L 200.855469 218.347656 C 201.105469 217.972656 201.339844 217.585938 201.558594 217.191406 Z M 167.617188 207.457031 C 159.410156 207.457031 152.605469 201.355469 151.488281 193.457031 C 153.46875 186.472656 155.484375 181.832031 157.117188 178.722656 C 159.953125 176.324219 163.617188 174.875 167.617188 174.875 C 176.597656 174.875 183.90625 182.183594 183.90625 191.164062 C 183.90625 200.148438 176.597656 207.457031 167.617188 207.457031 Z M 181.988281 175.179688 C 181.988281 174.792969 182.488281 174.367188 183.203125 174.367188 C 183.917969 174.367188 184.414062 174.796875 184.414062 175.179688 L 184.414062 178.667969 C 184.414062 179.054688 183.917969 179.484375 183.203125 179.484375 C 182.488281 179.484375 181.988281 179.054688 181.988281 178.667969 Z M 159.972656 173.941406 C 161.707031 171.253906 166.550781 171.042969 168.261719 171.1875 C 168.347656 171.191406 168.441406 171.195312 168.53125 171.191406 C 168.570312 171.1875 172.730469 171.039062 179.773438 172.671875 C 179.921875 172.707031 180.078125 172.726562 180.230469 172.726562 L 181.554688 172.726562 C 180.597656 173.222656 179.953125 174.132812 179.953125 175.179688 L 179.953125 177.625 C 176.695312 174.652344 172.363281 172.835938 167.617188 172.835938 C 164.675781 172.835938 161.898438 173.535156 159.433594 174.769531 C 159.523438 174.636719 159.605469 174.511719 159.683594 174.390625 Z M 155.589844 248.933594 C 148.046875 248.933594 145.765625 241.898438 145.070312 237.929688 C 148.222656 240.183594 154.03125 242.847656 163.902344 242.847656 C 165.160156 242.847656 166.488281 242.800781 167.878906 242.707031 C 165.78125 245.542969 161.945312 248.933594 155.589844 248.933594 Z M 175.761719 221.996094 L 169.996094 238.941406 C 169.984375 238.96875 169.753906 239.609375 169.246094 240.5625 C 154.316406 241.894531 147.355469 237.394531 144.808594 235.0625 C 146.121094 218.542969 148.195312 206.414062 150.414062 197.492188 C 152.996094 204.488281 159.730469 209.492188 167.613281 209.492188 C 169.703125 209.492188 171.707031 209.132812 173.578125 208.488281 C 173.527344 209.003906 173.496094 209.523438 173.496094 210.046875 C 173.496094 213.925781 174.984375 217.464844 177.417969 220.128906 L 176.304688 221.15625 C 176.058594 221.386719 175.871094 221.675781 175.761719 221.996094 Z M 177.566406 210.046875 C 177.566406 208.957031 177.726562 207.878906 178.046875 206.84375 C 178.113281 206.617188 178.128906 206.390625 178.121094 206.167969 C 180.355469 204.59375 182.226562 202.539062 183.578125 200.152344 C 183.800781 200.136719 184.027344 200.097656 184.246094 200.007812 C 185.570312 199.453125 186.976562 199.171875 188.4375 199.171875 C 194.433594 199.171875 199.308594 204.050781 199.308594 210.042969 C 199.308594 216.042969 194.433594 220.914062 188.4375 220.914062 C 182.445312 220.914062 177.566406 216.042969 177.566406 210.046875 Z M 220.695312 210.046875 C 220.695312 204.050781 225.570312 199.175781 231.5625 199.175781 C 233.023438 199.175781 234.433594 199.453125 235.757812 200.007812 C 235.976562 200.101562 236.199219 200.136719 236.425781 200.152344 C 237.777344 202.539062 239.644531 204.597656 241.882812 206.167969 C 241.871094 206.390625 241.890625 206.621094 241.957031 206.847656 C 242.273438 207.878906 242.433594 208.957031 242.433594 210.046875 C 242.433594 216.042969 237.558594 220.917969 231.566406 220.917969 C 225.570312 220.917969 220.695312 216.042969 220.695312 210.046875 Z M 244.242188 221.996094 C 244.132812 221.675781 243.945312 221.386719 243.695312 221.15625 L 242.582031 220.125 C 245.015625 217.464844 246.503906 213.925781 246.503906 210.042969 C 246.503906 209.523438 246.476562 209.003906 246.421875 208.488281 C 248.292969 209.132812 250.296875 209.488281 252.386719 209.488281 C 260.269531 209.488281 267.003906 204.488281 269.585938 197.492188 C 271.800781 206.402344 273.875 218.511719 275.1875 235.003906 C 272.734375 237.320312 265.855469 241.90625 250.75 240.566406 C 250.269531 239.667969 250.042969 239.039062 250.007812 238.941406 Z M 264.410156 248.933594 C 258.011719 248.933594 254.179688 245.542969 252.097656 242.714844 C 253.464844 242.804688 254.773438 242.851562 256.011719 242.851562 C 265.988281 242.851562 271.8125 240.132812 274.941406 237.863281 C 274.265625 241.816406 271.996094 248.933594 264.410156 248.933594 Z M 264.410156 248.933594 "/>
</g>
<path style=" stroke:none;fill-rule:nonzero;fill:rgb(100%,100%,100%);fill-opacity:1;" d="M 252.546875 187.285156 C 255.46875 187.285156 257.84375 184.910156 257.84375 181.988281 C 257.84375 179.070312 255.46875 176.695312 252.546875 176.695312 C 249.625 176.695312 247.25 179.070312 247.25 181.988281 C 247.25 184.910156 249.625 187.285156 252.546875 187.285156 Z M 250.363281 184.40625 L 254.726562 184.40625 C 254.152344 184.929688 253.386719 185.25 252.546875 185.25 C 251.707031 185.25 250.941406 184.929688 250.363281 184.40625 Z M 252.546875 181.503906 L 253.027344 182.367188 L 252.066406 182.367188 Z M 255.804688 181.988281 C 255.804688 182.320312 255.753906 182.644531 255.660156 182.949219 C 255.652344 182.929688 255.648438 182.910156 255.640625 182.894531 L 253.433594 178.90625 C 253.421875 178.882812 253.402344 178.863281 253.390625 178.84375 C 254.777344 179.214844 255.804688 180.484375 255.804688 181.988281 Z M 251.699219 178.84375 C 251.683594 178.867188 251.664062 178.882812 251.65625 178.90625 L 249.453125 182.894531 C 249.441406 182.914062 249.4375 182.933594 249.429688 182.949219 C 249.335938 182.648438 249.285156 182.324219 249.285156 181.992188 C 249.285156 180.484375 250.3125 179.21875 251.699219 178.84375 Z M 251.699219 178.84375 "/>
<path style=" stroke:none;fill-rule:nonzero;fill:rgb(100%,100%,100%);fill-opacity:1;" d="M 261.722656 194.042969 C 263.332031 194.042969 264.640625 192.734375 264.640625 191.125 C 264.640625 189.515625 263.332031 188.203125 261.722656 188.203125 C 260.109375 188.203125 258.800781 189.511719 258.800781 191.125 C 258.800781 192.734375 260.109375 194.042969 261.722656 194.042969 Z M 261.722656 190.238281 C 262.207031 190.238281 262.605469 190.636719 262.605469 191.121094 C 262.605469 191.609375 262.207031 192.007812 261.722656 192.007812 C 261.234375 192.007812 260.835938 191.609375 260.835938 191.121094 C 260.835938 190.636719 261.234375 190.238281 261.722656 190.238281 Z M 261.722656 190.238281 "/>
<path style=" stroke:none;fill-rule:nonzero;fill:rgb(100%,100%,100%);fill-opacity:1;" d="M 257.84375 200.339844 C 257.84375 197.417969 255.46875 195.042969 252.546875 195.042969 C 249.625 195.042969 247.25 197.417969 247.25 200.339844 C 247.25 203.261719 249.625 205.636719 252.546875 205.636719 C 255.46875 205.636719 257.84375 203.261719 257.84375 200.339844 Z M 249.285156 200.339844 C 249.285156 198.542969 250.75 197.082031 252.546875 197.082031 C 254.34375 197.082031 255.808594 198.542969 255.808594 200.339844 C 255.808594 202.136719 254.34375 203.597656 252.546875 203.597656 C 250.75 203.597656 249.285156 202.136719 249.285156 200.339844 Z M 249.285156 200.339844 "/>
<path style=" stroke:none;fill-rule:nonzero;fill:rgb(100%,100%,100%);fill-opacity:1;" d="M 261.71875 196.460938 C 264.640625 196.460938 267.015625 194.085938 267.015625 191.164062 C 267.015625 188.246094 264.640625 185.867188 261.71875 185.867188 C 258.800781 185.867188 256.425781 188.242188 256.425781 191.164062 C 256.425781 194.085938 258.800781 196.460938 261.71875 196.460938 Z M 261.71875 187.90625 C 263.519531 187.90625 264.980469 189.367188 264.980469 191.164062 C 264.980469 192.960938 263.519531 194.425781 261.71875 194.425781 C 259.921875 194.425781 258.460938 192.960938 258.460938 191.164062 C 258.460938 189.367188 259.921875 187.90625 261.71875 187.90625 Z M 261.71875 187.90625 "/>
<path style=" stroke:none;fill-rule:nonzero;fill:rgb(100%,100%,100%);fill-opacity:1;" d="M 243.371094 185.871094 C 240.449219 185.871094 238.074219 188.246094 238.074219 191.167969 C 238.074219 194.085938 240.449219 196.460938 243.371094 196.460938 C 246.289062 196.460938 248.664062 194.085938 248.664062 191.167969 C 248.664062 188.246094 246.292969 185.871094 243.371094 185.871094 Z M 243.371094 194.425781 C 241.570312 194.425781 240.109375 192.960938 240.109375 191.164062 C 240.109375 189.367188 241.570312 187.90625 243.371094 187.90625 C 245.167969 187.90625 246.628906 189.367188 246.628906 191.164062 C 246.628906 192.960938 245.167969 194.425781 243.371094 194.425781 Z M 243.371094 194.425781 "/>
<path style=" stroke:none;fill-rule:nonzero;fill:rgb(100%,100%,100%);fill-opacity:1;" d="M 231.566406 200.734375 C 226.632812 200.734375 222.621094 204.75 222.621094 209.683594 C 222.621094 214.617188 226.632812 218.628906 231.566406 218.628906 C 236.5 218.628906 240.511719 214.617188 240.511719 209.683594 C 240.511719 204.753906 236.5 200.734375 231.566406 200.734375 Z M 231.566406 216.59375 C 227.757812 216.59375 224.65625 213.496094 224.65625 209.6875 C 224.65625 205.875 227.757812 202.773438 231.566406 202.773438 C 235.375 202.773438 238.476562 205.875 238.476562 209.6875 C 238.476562 213.496094 235.375 216.59375 231.566406 216.59375 Z M 231.566406 216.59375 "/>
<path style=" stroke:none;fill-rule:nonzero;fill:rgb(100%,100%,100%);fill-opacity:1;" d="M 188.4375 200.734375 C 183.503906 200.734375 179.492188 204.75 179.492188 209.683594 C 179.492188 214.617188 183.503906 218.628906 188.4375 218.628906 C 193.371094 218.628906 197.386719 214.617188 197.386719 209.683594 C 197.386719 204.753906 193.371094 200.734375 188.4375 200.734375 Z M 188.4375 216.59375 C 184.628906 216.59375 181.527344 213.496094 181.527344 209.6875 C 181.527344 205.875 184.628906 202.773438 188.4375 202.773438 C 192.25 202.773438 195.351562 205.875 195.351562 209.6875 C 195.347656 213.496094 192.246094 216.59375 188.4375 216.59375 Z M 188.4375 216.59375 "/>
<path style=" stroke:none;fill-rule:nonzero;fill:rgb(100%,100%,100%);fill-opacity:1;" d="M 244.941406 188.578125 L 241.800781 188.578125 C 241.242188 188.578125 240.785156 189.035156 240.785156 189.59375 L 240.785156 192.734375 C 240.785156 193.296875 241.242188 193.753906 241.800781 193.753906 L 244.941406 193.753906 C 245.5 193.753906 245.957031 193.296875 245.957031 192.734375 L 245.957031 189.59375 C 245.957031 189.035156 245.5 188.578125 244.941406 188.578125 Z M 243.921875 191.71875 L 242.820312 191.71875 L 242.820312 190.613281 L 243.921875 190.613281 Z M 243.921875 191.71875 "/>
<path style=" stroke:none;fill-rule:nonzero;fill:rgb(100%,100%,100%);fill-opacity:1;" d="M 253.835938 203.070312 L 255.277344 201.628906 L 253.984375 200.339844 L 255.277344 199.050781 L 253.835938 197.609375 L 252.546875 198.898438 L 251.253906 197.609375 L 249.816406 199.050781 L 251.105469 200.339844 L 249.816406 201.628906 L 251.253906 203.070312 L 252.546875 201.78125 Z M 253.835938 203.070312 "/>
<path style=" stroke:none;fill-rule:nonzero;fill:rgb(100%,100%,100%);fill-opacity:1;" d="M 169.023438 193.707031 C 168.269531 192.957031 166.960938 192.957031 166.203125 193.710938 L 164.289062 195.625 C 164.097656 195.816406 163.992188 196.074219 163.992188 196.34375 L 163.992188 200.433594 C 163.992188 200.996094 164.449219 201.453125 165.011719 201.453125 L 170.21875 201.453125 C 170.78125 201.453125 171.238281 200.996094 171.238281 200.433594 L 171.238281 196.34375 C 171.238281 196.074219 171.128906 195.816406 170.9375 195.625 Z M 169.199219 199.417969 L 166.027344 199.417969 L 166.027344 196.765625 L 167.613281 195.175781 L 169.199219 196.765625 Z M 169.199219 199.417969 "/>
<path style=" stroke:none;fill-rule:nonzero;fill:rgb(100%,100%,100%);fill-opacity:1;" d="M 166.207031 188.738281 C 166.585938 189.113281 167.085938 189.320312 167.617188 189.320312 C 168.148438 189.320312 168.644531 189.113281 169.027344 188.738281 L 170.9375 186.820312 C 171.128906 186.632812 171.234375 186.371094 171.234375 186.101562 L 171.234375 182.011719 C 171.234375 181.449219 170.78125 180.992188 170.21875 180.992188 L 165.007812 180.992188 C 164.445312 180.992188 163.992188 181.449219 163.992188 182.011719 L 163.992188 186.101562 C 163.992188 186.371094 164.097656 186.632812 164.289062 186.820312 Z M 166.027344 183.027344 L 169.199219 183.027344 L 169.199219 185.679688 L 167.613281 187.265625 L 166.027344 185.679688 Z M 166.027344 183.027344 "/>
<path style=" stroke:none;fill-rule:nonzero;fill:rgb(100%,100%,100%);fill-opacity:1;" d="M 165.128906 189.8125 L 163.210938 187.898438 C 163.019531 187.707031 162.761719 187.601562 162.492188 187.601562 L 158.402344 187.601562 C 157.839844 187.601562 157.382812 188.054688 157.382812 188.617188 L 157.382812 193.828125 C 157.382812 194.390625 157.839844 194.84375 158.402344 194.84375 L 162.492188 194.84375 C 162.761719 194.84375 163.019531 194.738281 163.210938 194.546875 L 165.128906 192.632812 C 165.902344 191.851562 165.902344 190.589844 165.128906 189.8125 Z M 162.070312 192.808594 L 159.417969 192.808594 L 159.417969 189.636719 L 162.070312 189.636719 L 163.65625 191.222656 Z M 162.070312 192.808594 "/>
<path style=" stroke:none;fill-rule:nonzero;fill:rgb(100%,100%,100%);fill-opacity:1;" d="M 176.828125 187.601562 L 172.734375 187.601562 C 172.464844 187.601562 172.207031 187.707031 172.015625 187.898438 L 170.097656 189.8125 C 169.324219 190.589844 169.324219 191.851562 170.097656 192.632812 L 172.015625 194.546875 C 172.207031 194.738281 172.464844 194.84375 172.734375 194.84375 L 176.824219 194.84375 C 177.386719 194.84375 177.84375 194.386719 177.84375 193.828125 L 177.84375 188.617188 C 177.847656 188.054688 177.390625 187.601562 176.828125 187.601562 Z M 175.808594 192.808594 L 173.15625 192.808594 L 171.570312 191.222656 L 173.15625 189.636719 L 175.808594 189.636719 Z M 175.808594 192.808594 "/>
<path style=" stroke:none;fill-rule:nonzero;fill:rgb(100%,100%,100%);fill-opacity:1;" d="M 167.613281 177.492188 L 165.410156 179.695312 L 169.816406 179.695312 Z M 167.613281 177.492188 "/>
<path style=" stroke:none;fill-rule:nonzero;fill:rgb(100%,100%,100%);fill-opacity:1;" d="M 167.613281 204.957031 L 169.820312 202.75 L 165.410156 202.75 Z M 167.613281 204.957031 "/>
<path style=" stroke:none;fill-rule:nonzero;fill:rgb(100%,100%,100%);fill-opacity:1;" d="M 179.144531 189.019531 L 179.144531 193.425781 L 181.347656 191.222656 Z M 179.144531 189.019531 "/>
<path style=" stroke:none;fill-rule:nonzero;fill:rgb(100%,100%,100%);fill-opacity:1;" d="M 156.085938 193.425781 L 156.085938 189.019531 L 153.882812 191.222656 Z M 156.085938 193.425781 "/>
<path style=" stroke:none;fill-rule:nonzero;fill:rgb(100%,100%,100%);fill-opacity:1;" d="M 95.9375 177.257812 C 95.824219 177.640625 95.640625 177.925781 95.378906 178.109375 C 95.117188 178.292969 94.808594 178.335938 94.453125 178.230469 C 94.1875 178.15625 93.953125 177.929688 93.75 177.558594 C 93.542969 177.191406 93.421875 176.804688 93.382812 176.398438 C 93.035156 175.914062 92.425781 175.382812 91.554688 174.804688 C 90.683594 174.226562 89.75 173.792969 88.75 173.503906 L 86.996094 172.964844 C 86.503906 172.796875 85.929688 172.621094 85.28125 172.433594 L 83.804688 172.042969 L 80.132812 171.167969 C 75.351562 169.972656 71.105469 169.03125 67.390625 168.34375 C 67.417969 168.433594 67.40625 168.601562 67.367188 168.847656 C 67.371094 169.265625 67.328125 169.640625 67.230469 169.976562 C 67.160156 170.214844 67.011719 170.398438 66.78125 170.523438 C 66.554688 170.648438 66.320312 170.679688 66.078125 170.609375 C 65.238281 170.367188 65.230469 168.824219 66.050781 165.976562 L 66.183594 165.515625 C 66.28125 165.179688 66.378906 164.921875 66.472656 164.746094 C 66.5625 164.5625 66.707031 164.40625 66.898438 164.277344 C 67.097656 164.125 67.339844 164.09375 67.628906 164.175781 C 68.25 164.355469 68.414062 164.949219 68.125 165.953125 C 68.125 165.953125 68.121094 165.960938 68.117188 165.976562 C 68.113281 165.988281 68.097656 165.992188 68.074219 165.984375 L 68.050781 166.054688 L 67.917969 166.515625 L 68.203125 166.597656 C 68.828125 166.777344 69.769531 166.972656 71.027344 167.183594 C 72.449219 167.46875 73.398438 167.679688 73.878906 167.816406 C 75.574219 168.308594 77.925781 168.855469 80.9375 169.46875 C 83.769531 170.078125 86.128906 170.65625 88.015625 171.203125 L 89.441406 171.613281 L 90.878906 172.027344 C 92.316406 172.445312 93.503906 173.117188 94.441406 174.046875 C 95.375 174.976562 95.871094 176.046875 95.9375 177.257812 Z M 95.9375 177.257812 "/>
<path style=" stroke:none;fill-rule:nonzero;fill:rgb(100%,100%,100%);fill-opacity:1;" d="M 106.632812 145.113281 C 106.347656 145.613281 106.0625 145.9375 105.78125 146.089844 C 105.5 146.238281 105.148438 146.195312 104.738281 145.960938 C 104.085938 145.589844 102.925781 145.070312 101.25 144.402344 L 100.488281 144.140625 L 98.175781 147.074219 C 98.597656 147.484375 99.496094 148.246094 100.875 149.351562 C 101.855469 150.082031 102.441406 150.6875 102.628906 151.164062 C 102.734375 151.425781 102.703125 151.699219 102.546875 151.976562 C 102.398438 152.234375 102.183594 152.425781 101.898438 152.550781 C 101.613281 152.675781 101.355469 152.671875 101.121094 152.539062 L 100.988281 152.378906 L 100.875 152.277344 C 96.136719 147.679688 91.277344 143.472656 86.292969 139.65625 C 86.203125 139.605469 86.0625 139.515625 85.871094 139.378906 C 85.671875 139.234375 85.390625 139.042969 85.015625 138.808594 C 84.253906 138.28125 83.652344 137.84375 83.21875 137.5 C 82.785156 137.152344 82.5 136.828125 82.363281 136.519531 L 82.992188 135.414062 C 83.167969 135.113281 83.382812 134.894531 83.648438 134.757812 C 83.910156 134.621094 84.167969 134.625 84.429688 134.773438 C 86.074219 135.710938 88.648438 136.875 92.148438 138.265625 C 95.726562 139.738281 98.179688 140.855469 99.515625 141.617188 C 99.648438 141.695312 100.015625 141.828125 100.625 142.027344 C 101.179688 142.207031 101.53125 142.339844 101.6875 142.425781 C 101.835938 142.511719 102.542969 142.773438 103.8125 143.207031 C 104.964844 143.601562 105.691406 143.886719 105.992188 144.058594 L 106.03125 144.078125 C 106.5 144.347656 106.699219 144.691406 106.632812 145.113281 Z M 99.1875 143.707031 C 98.832031 143.582031 98.414062 143.386719 97.9375 143.113281 C 95.988281 142.003906 93.40625 140.761719 90.183594 139.382812 L 86.621094 137.78125 C 91.171875 141.613281 94.648438 144.4375 97.042969 146.257812 C 97.445312 146.058594 98.15625 145.207031 99.1875 143.707031 Z M 99.1875 143.707031 "/>
<path style=" stroke:none;fill-rule:nonzero;fill:rgb(100%,100%,100%);fill-opacity:1;" d="M 121.613281 126.089844 C 121.324219 126.402344 120.886719 126.472656 120.300781 126.300781 C 120.101562 125.75 118.640625 124.214844 115.917969 121.699219 C 115.273438 121.101562 114.539062 120.503906 113.707031 119.902344 L 112.835938 119.257812 C 112.292969 118.851562 111.890625 118.527344 111.636719 118.292969 L 110.929688 117.640625 C 110.300781 117.398438 109.140625 116.945312 107.445312 116.28125 C 105.761719 115.617188 104.363281 115.042969 103.25 114.558594 C 101.960938 114.011719 101.140625 113.582031 100.789062 113.257812 L 100.65625 113.132812 L 100.773438 112.0625 C 101.09375 111.789062 101.800781 111.832031 102.894531 112.191406 C 103.835938 112.523438 105.105469 113.09375 106.699219 113.90625 C 108.289062 114.714844 109.121094 115.15625 109.195312 115.222656 C 109.058594 114.960938 108.507812 114.179688 107.542969 112.882812 C 106.574219 111.582031 105.769531 110.382812 105.128906 109.285156 C 104.519531 108.140625 104.367188 107.402344 104.671875 107.074219 C 104.839844 106.890625 105.042969 106.78125 105.277344 106.746094 C 105.511719 106.710938 105.714844 106.773438 105.882812 106.925781 C 106.8125 107.785156 107.890625 109.257812 109.117188 111.339844 C 110.453125 113.59375 111.535156 115.105469 112.363281 115.867188 L 120.613281 123.492188 C 121.835938 124.621094 122.171875 125.488281 121.613281 126.089844 Z M 121.613281 126.089844 "/>
<path style=" stroke:none;fill-rule:nonzero;fill:rgb(100%,100%,100%);fill-opacity:1;" d="M 163.226562 96.894531 C 162.765625 97.082031 162.324219 97.144531 161.90625 97.074219 C 161.488281 97 161.207031 96.773438 161.054688 96.40625 C 161.359375 95.691406 161.0625 94.238281 160.175781 92.050781 C 159.640625 90.738281 158.757812 88.867188 157.523438 86.441406 C 156.320312 84.132812 155.433594 82.292969 154.875 80.914062 L 154.167969 78.976562 C 153.96875 78.414062 153.726562 77.773438 153.433594 77.0625 C 153.171875 76.414062 152.722656 75.644531 152.09375 74.75 C 151.394531 73.824219 150.960938 73.15625 150.792969 72.742188 C 150.460938 71.929688 151.183594 71.164062 152.957031 70.441406 L 153.472656 70.234375 C 154.71875 69.726562 155.957031 69.667969 157.195312 70.058594 C 158.195312 70.40625 159.195312 71.085938 160.203125 72.097656 C 160.882812 72.789062 161.652344 73.816406 162.503906 75.183594 C 163.167969 76.421875 163.648438 77.410156 163.953125 78.144531 L 164.402344 79.253906 L 165.0625 80.875 C 165.050781 80.988281 165.066406 81.089844 165.105469 81.183594 C 165.179688 81.367188 165.246094 81.5 165.300781 81.585938 C 165.367188 81.667969 165.425781 81.777344 165.484375 81.914062 C 165.785156 82.652344 166.027344 83.582031 166.21875 84.691406 C 166.421875 85.808594 166.527344 86.984375 166.546875 88.214844 C 166.539062 91.167969 166.105469 93.4375 165.246094 95.027344 C 164.730469 95.933594 164.058594 96.558594 163.226562 96.894531 Z M 163.132812 94.59375 C 163.773438 93.71875 164.214844 92.648438 164.457031 91.382812 C 164.695312 90.117188 164.734375 88.800781 164.582031 87.433594 C 164.28125 84.925781 163.664062 82.519531 162.726562 80.210938 C 162.222656 78.972656 161.554688 77.660156 160.722656 76.277344 C 159.890625 74.949219 158.824219 73.875 157.523438 73.058594 C 156.910156 72.664062 156.242188 72.433594 155.515625 72.367188 C 154.789062 72.300781 154.046875 72.421875 153.289062 72.730469 L 153.304688 72.769531 C 154.144531 74.839844 155.554688 77.917969 157.53125 82.003906 C 159.503906 86.0625 160.925781 89.167969 161.796875 91.308594 Z M 163.132812 94.59375 "/>
<path style=" stroke:none;fill-rule:nonzero;fill:rgb(100%,100%,100%);fill-opacity:1;" d="M 193.359375 89.0625 C 193.042969 89.109375 192.738281 89.042969 192.445312 88.859375 C 192.152344 88.679688 191.972656 88.429688 191.90625 88.109375 L 191.765625 87.144531 L 191.65625 86.40625 C 191.597656 86.191406 191.546875 85.9375 191.503906 85.640625 C 191.425781 85.121094 191.277344 84.335938 191.054688 83.289062 L 190.636719 80.933594 C 190.460938 79.730469 190.238281 77.925781 189.960938 75.527344 C 189.75 73.371094 189.539062 71.566406 189.328125 70.117188 C 189.277344 69.773438 189.167969 69.257812 188.996094 68.578125 C 188.816406 67.878906 188.703125 67.367188 188.65625 67.042969 C 188.402344 65.296875 188.792969 64.347656 189.828125 64.195312 C 190.640625 64.078125 191.601562 64.101562 192.71875 64.261719 C 193.835938 64.429688 194.425781 64.738281 194.492188 65.183594 C 194.527344 65.429688 194.457031 65.667969 194.285156 65.902344 C 194.101562 66.144531 193.875 66.351562 193.597656 66.519531 C 192.507812 66.296875 191.535156 66.1875 190.679688 66.1875 C 190.757812 66.550781 190.851562 67.078125 190.949219 67.765625 C 191.09375 68.753906 191.207031 69.644531 191.292969 70.4375 C 191.394531 71.621094 191.488281 72.511719 191.574219 73.105469 L 191.765625 73.679688 L 192.351562 73.5625 C 192.542969 73.507812 192.789062 73.457031 193.085938 73.414062 C 194.269531 73.242188 194.910156 73.5 195.011719 74.191406 C 195.050781 74.464844 194.976562 74.710938 194.785156 74.925781 C 194.585938 75.140625 194.3125 75.273438 193.96875 75.324219 C 193.523438 75.390625 193.175781 75.414062 192.921875 75.402344 L 192 75.535156 C 192.144531 76.167969 192.304688 77.101562 192.484375 78.335938 C 192.660156 79.558594 192.808594 80.667969 192.921875 81.660156 C 193.070312 83.175781 193.195312 84.300781 193.304688 85.035156 C 193.503906 86.414062 193.628906 87.101562 193.679688 87.09375 L 194.890625 86.886719 C 195.308594 86.796875 195.8125 86.710938 196.40625 86.625 C 197.335938 86.488281 197.84375 86.71875 197.929688 87.308594 C 197.980469 87.65625 197.863281 87.941406 197.589844 88.167969 C 197.304688 88.394531 196.941406 88.542969 196.5 88.605469 Z M 193.359375 89.0625 "/>
<path style=" stroke:none;fill-rule:nonzero;fill:rgb(100%,100%,100%);fill-opacity:1;" d="M 222.871094 88.644531 L 222.214844 88.019531 C 222.507812 85.171875 222.546875 82.199219 222.328125 79.101562 C 222.109375 76 221.65625 72.1875 220.972656 67.65625 C 220.949219 67.40625 220.875 67.011719 220.757812 66.476562 C 220.457031 65.042969 220.324219 64.140625 220.363281 63.773438 C 220.382812 63.546875 220.496094 63.355469 220.699219 63.207031 C 220.902344 63.046875 221.117188 62.980469 221.34375 63.003906 C 221.710938 63.042969 222.027344 63.390625 222.285156 64.046875 C 222.542969 64.675781 222.761719 65.5 222.933594 66.527344 C 223.097656 67.5625 223.265625 68.839844 223.429688 70.359375 C 223.582031 71.796875 223.722656 73.996094 223.847656 76.957031 L 223.921875 78.4375 L 224.027344 81.785156 C 224.03125 82.710938 224.050781 83.375 224.082031 83.777344 C 224.882812 81.113281 225.957031 77.246094 227.300781 72.171875 C 228.421875 67.835938 229.199219 64.878906 229.640625 63.300781 L 230.460938 63.382812 C 230.679688 63.40625 230.867188 63.507812 231.03125 63.6875 C 231.183594 63.863281 231.25 64.0625 231.226562 64.289062 C 231.132812 65.179688 230.929688 66.128906 230.609375 67.136719 C 230.300781 68.140625 229.859375 69.339844 229.285156 70.734375 C 228.8125 71.929688 228.488281 72.835938 228.320312 73.449219 C 228.144531 74.050781 227.9375 75.019531 227.699219 76.347656 C 227.195312 79.320312 226.609375 81.972656 225.949219 84.300781 C 225.523438 85.710938 225.046875 86.804688 224.515625 87.578125 C 223.984375 88.347656 223.4375 88.703125 222.871094 88.644531 Z M 222.871094 88.644531 "/>
<path style=" stroke:none;fill-rule:nonzero;fill:rgb(100%,100%,100%);fill-opacity:1;" d="M 250.679688 94.925781 C 250.378906 94.820312 250.140625 94.617188 249.964844 94.324219 C 249.785156 94.027344 249.742188 93.722656 249.828125 93.40625 L 250.148438 92.488281 L 250.390625 91.785156 C 250.4375 91.566406 250.511719 91.316406 250.609375 91.03125 C 250.78125 90.535156 251.011719 89.769531 251.292969 88.738281 L 252.007812 86.453125 C 252.40625 85.304688 253.035156 83.601562 253.894531 81.34375 C 254.699219 79.332031 255.339844 77.636719 255.820312 76.25 C 255.9375 75.917969 256.074219 75.414062 256.234375 74.730469 C 256.398438 74.027344 256.53125 73.519531 256.640625 73.210938 C 257.21875 71.542969 258.003906 70.878906 258.992188 71.222656 C 259.765625 71.492188 260.609375 71.957031 261.527344 72.613281 C 262.441406 73.277344 262.824219 73.820312 262.679688 74.246094 C 262.597656 74.480469 262.425781 74.660156 262.160156 74.789062 C 261.890625 74.917969 261.589844 74.996094 261.265625 75.019531 C 260.402344 74.320312 259.589844 73.773438 258.828125 73.382812 C 258.734375 73.742188 258.574219 74.25 258.34375 74.910156 C 258.015625 75.851562 257.710938 76.695312 257.421875 77.4375 C 256.964844 78.535156 256.636719 79.371094 256.441406 79.933594 L 256.347656 80.535156 L 256.921875 80.699219 C 257.117188 80.738281 257.359375 80.808594 257.640625 80.90625 C 258.769531 81.296875 259.222656 81.824219 258.992188 82.484375 C 258.902344 82.746094 258.722656 82.925781 258.453125 83.03125 C 258.175781 83.128906 257.875 83.125 257.542969 83.007812 C 257.121094 82.859375 256.796875 82.722656 256.582031 82.59375 L 255.703125 82.289062 C 255.535156 82.917969 255.25 83.820312 254.839844 84.996094 C 254.433594 86.167969 254.054688 87.21875 253.699219 88.152344 C 253.132812 89.566406 252.730469 90.625 252.484375 91.324219 C 252.027344 92.640625 251.824219 93.308594 251.871094 93.324219 L 253.039062 93.699219 C 253.453125 93.8125 253.941406 93.964844 254.507812 94.164062 C 255.394531 94.472656 255.738281 94.90625 255.542969 95.472656 C 255.429688 95.800781 255.195312 96.003906 254.847656 96.078125 C 254.492188 96.148438 254.101562 96.113281 253.675781 95.964844 Z M 250.679688 94.925781 "/>
<path style=" stroke:none;fill-rule:nonzero;fill:rgb(100%,100%,100%);fill-opacity:1;" d="M 279.03125 109.460938 C 278.433594 108.726562 277.574219 108.003906 276.457031 107.296875 C 275.992188 107.296875 275.574219 107.175781 275.195312 106.933594 C 274.941406 106.773438 274.796875 106.527344 274.757812 106.191406 C 274.714844 105.859375 274.773438 105.566406 274.933594 105.316406 C 276.054688 103.546875 277.625 101.242188 279.640625 98.398438 C 281.753906 95.351562 283.304688 93.046875 284.292969 91.488281 L 284.433594 91.273438 C 285.148438 89.867188 285.714844 88.835938 286.125 88.1875 C 287.394531 86.191406 288.394531 85.429688 289.125 85.894531 C 289.335938 86.027344 289.472656 86.222656 289.527344 86.476562 C 289.585938 86.730469 289.546875 86.964844 289.414062 87.175781 C 289.25 87.425781 288.96875 87.808594 288.5625 88.316406 C 288.160156 88.804688 287.871094 89.183594 287.699219 89.453125 C 286.808594 90.859375 286.011719 92.136719 285.316406 93.289062 C 284.628906 94.410156 283.835938 95.675781 282.945312 97.082031 C 282.640625 97.335938 282.308594 97.746094 281.949219 98.3125 L 281.707031 98.6875 L 280.066406 101.136719 C 279.554688 101.851562 279 102.675781 278.398438 103.621094 C 277.480469 105.070312 277.367188 106.011719 278.058594 106.453125 C 278.097656 106.476562 278.171875 106.515625 278.273438 106.566406 C 278.375 106.621094 278.507812 106.703125 278.675781 106.808594 C 278.878906 106.902344 279.125 107.042969 279.421875 107.230469 C 280.558594 107.949219 280.925781 108.625 280.523438 109.257812 C 280.390625 109.46875 280.183594 109.585938 279.898438 109.605469 C 279.617188 109.636719 279.328125 109.589844 279.03125 109.460938 Z M 279.03125 109.460938 "/>
<path style=" stroke:none;fill-rule:nonzero;fill:rgb(100%,100%,100%);fill-opacity:1;" d="M 298.433594 126.445312 C 297.984375 125.976562 297.710938 125.40625 297.625 124.730469 C 297.546875 124.054688 297.636719 123.347656 297.894531 122.613281 C 298.480469 121.039062 299.359375 119.566406 300.53125 118.195312 C 301.585938 116.859375 302.679688 115.644531 303.808594 114.550781 C 304.023438 114.34375 304.214844 114.179688 304.375 114.0625 L 304.851562 113.601562 C 304.945312 113.511719 304.980469 113.460938 304.960938 113.4375 L 305.445312 112.972656 L 307.355469 111.183594 C 307.9375 110.648438 308.917969 109.839844 310.296875 108.757812 C 311.238281 108.011719 312.269531 107.414062 313.386719 106.957031 C 313.867188 106.738281 314.296875 106.636719 314.675781 106.648438 C 315.058594 106.664062 315.367188 106.796875 315.605469 107.042969 C 316.296875 107.757812 316.789062 108.53125 317.082031 109.355469 C 317.375 110.179688 317.480469 111.015625 317.394531 111.859375 C 317.296875 112.648438 317.039062 113.484375 316.628906 114.371094 C 316.21875 115.25 315.699219 116.097656 315.066406 116.917969 C 314.421875 117.746094 313.679688 118.570312 312.832031 119.386719 L 312.617188 119.59375 C 312.066406 120.128906 311.574219 120.621094 311.144531 121.066406 L 309.636719 122.582031 C 304.488281 127.558594 300.753906 128.847656 298.433594 126.445312 Z M 299.449219 125.253906 C 299.761719 125.574219 300.179688 125.746094 300.703125 125.765625 C 301.222656 125.777344 301.773438 125.640625 302.355469 125.355469 C 303.59375 124.8125 304.777344 124.066406 305.90625 123.113281 C 306.90625 122.324219 307.734375 121.609375 308.398438 120.972656 C 309.203125 120.191406 310.199219 119.105469 311.382812 117.714844 C 312.65625 116.277344 313.632812 115.230469 314.3125 114.570312 L 314.796875 114.105469 C 315.441406 113.410156 315.8125 112.613281 315.902344 111.714844 C 315.996094 110.808594 315.75 110.054688 315.164062 109.445312 C 314.574219 108.835938 313.835938 108.769531 312.953125 109.246094 C 312.226562 109.601562 311.425781 110.207031 310.542969 111.054688 C 310.207031 111.382812 309.929688 111.671875 309.714844 111.917969 L 308.992188 112.617188 L 307.703125 113.757812 C 307.296875 114.082031 306.867188 114.460938 306.417969 114.898438 C 305.453125 115.828125 304.519531 116.777344 303.617188 117.75 C 302.347656 119.117188 301.214844 120.558594 300.222656 122.070312 C 299.171875 123.640625 298.917969 124.699219 299.449219 125.253906 Z M 299.449219 125.253906 "/>
<path style=" stroke:none;fill-rule:nonzero;fill:rgb(100%,100%,100%);fill-opacity:1;" d="M 315.042969 148.71875 L 315.03125 147.808594 C 316.003906 146.867188 317.5 145.804688 319.515625 144.625 L 322.417969 143.011719 C 323.304688 142.550781 324.273438 142.011719 325.332031 141.394531 C 325.558594 141.089844 325.785156 140.867188 326.019531 140.730469 L 326.109375 140.675781 C 326.648438 140.652344 327.636719 140.21875 329.074219 139.375 L 330.574219 138.535156 C 331.0625 138.28125 331.59375 137.988281 332.171875 137.648438 C 333.4375 136.90625 334.382812 136.238281 335.015625 135.636719 C 335.351562 135.523438 335.679688 135.476562 335.996094 135.496094 C 336.308594 135.511719 336.527344 135.625 336.65625 135.839844 L 337.488281 137.257812 C 337.839844 137.859375 338.011719 138.464844 338.003906 139.074219 C 338 139.6875 337.820312 140.253906 337.464844 140.773438 C 336.839844 141.71875 335.921875 142.542969 334.71875 143.246094 C 333.859375 143.75 333.175781 144.136719 332.671875 144.398438 C 332.019531 144.722656 331.382812 144.949219 330.765625 145.078125 C 330.453125 145.179688 330.171875 145.226562 329.917969 145.214844 C 329.667969 145.207031 329.347656 145.171875 328.964844 145.105469 C 328.425781 145.019531 327.796875 144.722656 327.074219 144.222656 C 326.753906 144.03125 326.398438 143.746094 326.007812 143.375 L 322.5625 145.390625 L 320.535156 146.664062 L 319.578125 147.3125 C 318.421875 148.101562 317.429688 148.742188 316.59375 149.234375 C 316.335938 149.382812 316.050781 149.40625 315.742188 149.296875 C 315.4375 149.1875 315.203125 148.996094 315.042969 148.71875 Z M 327.339844 142.628906 C 328.28125 143.785156 330.46875 143.359375 333.902344 141.347656 C 334.53125 140.984375 334.996094 140.664062 335.300781 140.394531 C 335.515625 140.1875 335.675781 139.980469 335.777344 139.769531 C 335.875 139.570312 335.914062 139.335938 335.890625 139.058594 C 335.878906 138.742188 335.792969 138.449219 335.632812 138.171875 C 335.65625 138.15625 335.597656 138.03125 335.460938 137.789062 L 333.625 138.863281 C 332.351562 139.609375 331.234375 140.28125 330.265625 140.882812 C 329.148438 141.535156 328.421875 141.972656 328.089844 142.191406 L 327.40625 142.59375 Z M 327.339844 142.628906 "/>
<path style=" stroke:none;fill-rule:nonzero;fill:rgb(100%,100%,100%);fill-opacity:1;" d="M 326.003906 173.203125 C 325.945312 172.75 325.992188 172.34375 326.136719 171.976562 C 326.273438 171.605469 326.527344 171.335938 326.894531 171.171875 L 327.625 171.367188 C 327.667969 171.507812 327.695312 171.75 327.695312 172.09375 C 327.730469 172.472656 327.777344 172.753906 327.835938 172.945312 C 327.96875 173.375 328.28125 173.699219 328.769531 173.929688 C 329.253906 174.152344 329.835938 174.25 330.507812 174.226562 C 331.742188 174.179688 332.8125 174.011719 333.71875 173.730469 C 335.28125 173.242188 336.777344 172.234375 338.210938 170.699219 L 338.757812 170.09375 C 339.398438 169.398438 339.980469 168.800781 340.503906 168.296875 C 341.027344 167.796875 341.609375 167.328125 342.257812 166.890625 C 343.09375 166.316406 343.976562 165.882812 344.90625 165.59375 C 345.945312 165.269531 347.113281 165.167969 348.402344 165.289062 C 349.027344 165.355469 349.578125 165.558594 350.054688 165.894531 C 350.539062 166.226562 350.867188 166.664062 351.035156 167.210938 C 351.167969 167.636719 351.15625 168.078125 351 168.53125 C 350.839844 168.980469 350.574219 169.265625 350.191406 169.382812 C 349.972656 169.453125 349.78125 169.421875 349.617188 169.292969 C 349.441406 169.164062 349.316406 168.976562 349.242188 168.742188 C 349.160156 168.480469 349.15625 168.210938 349.226562 167.929688 C 349.039062 167.414062 348.449219 167.140625 347.453125 167.117188 C 346.539062 167.109375 345.808594 167.191406 345.257812 167.363281 C 344.570312 167.578125 343.910156 167.902344 343.277344 168.339844 C 342.644531 168.765625 342.09375 169.238281 341.625 169.746094 L 340.445312 170.976562 L 338.476562 172.953125 C 337.914062 173.496094 337.226562 174.003906 336.410156 174.480469 C 335.597656 174.957031 334.738281 175.335938 333.835938 175.617188 C 332.386719 176.070312 330.90625 176.164062 329.386719 175.90625 C 328.617188 175.78125 327.9375 175.476562 327.347656 175 C 326.757812 174.519531 326.347656 173.90625 326.117188 173.167969 Z M 326.003906 173.203125 "/>
<path style=" stroke:none;fill-rule:nonzero;fill:rgb(79.215686%,20.392157%,20%);fill-opacity:1;" d="M 66.019531 251.929688 C 65.914062 251.566406 65.917969 251.246094 66.03125 250.96875 C 66.152344 250.691406 66.378906 250.503906 66.714844 250.40625 C 66.96875 250.332031 67.265625 250.394531 67.609375 250.582031 C 67.960938 250.777344 68.253906 251.027344 68.492188 251.328125 C 69.019531 251.539062 69.777344 251.660156 70.761719 251.6875 C 71.746094 251.707031 72.710938 251.582031 73.664062 251.308594 L 75.335938 250.859375 C 75.820312 250.75 76.367188 250.609375 76.976562 250.433594 L 78.363281 249.992188 L 81.742188 248.839844 C 86.179688 247.394531 90.058594 246.007812 93.378906 244.683594 C 93.3125 244.628906 93.234375 244.492188 93.148438 244.269531 C 92.929688 243.941406 92.773438 243.621094 92.683594 243.304688 C 92.617188 243.082031 92.648438 242.859375 92.769531 242.636719 C 92.890625 242.417969 93.066406 242.273438 93.289062 242.207031 C 94.085938 241.980469 94.867188 243.214844 95.644531 245.910156 L 95.769531 246.351562 C 95.859375 246.667969 95.914062 246.921875 95.933594 247.117188 C 95.949219 247.304688 95.914062 247.496094 95.824219 247.691406 C 95.738281 247.914062 95.558594 248.066406 95.285156 248.144531 C 94.699219 248.316406 94.265625 247.925781 93.992188 246.972656 C 93.992188 246.972656 93.992188 246.964844 93.988281 246.953125 C 93.984375 246.9375 93.996094 246.929688 94.023438 246.921875 L 94.003906 246.859375 L 93.878906 246.417969 L 93.601562 246.496094 C 93.011719 246.667969 92.160156 246.984375 91.042969 247.453125 C 89.769531 247.941406 88.902344 248.25 88.441406 248.382812 C 86.839844 248.839844 84.679688 249.585938 81.960938 250.609375 C 79.386719 251.550781 77.203125 252.28125 75.410156 252.792969 L 74.058594 253.183594 L 72.703125 253.574219 C 71.339844 253.964844 70.050781 254.019531 68.828125 253.742188 C 67.617188 253.46875 66.679688 252.863281 66.019531 251.929688 Z M 66.019531 251.929688 "/>
<path style=" stroke:none;fill-rule:nonzero;fill:rgb(79.215686%,20.392157%,20%);fill-opacity:1;" d="M 84.828125 287.539062 C 84.554688 287.0625 84.425781 286.671875 84.441406 286.367188 C 84.464844 286.058594 84.667969 285.796875 85.050781 285.582031 C 85.667969 285.230469 86.65625 284.53125 88.015625 283.488281 L 88.582031 282.996094 L 87.320312 279.695312 C 86.777344 279.839844 85.726562 280.207031 84.164062 280.800781 C 83.089844 281.246094 82.316406 281.433594 81.835938 281.351562 C 81.570312 281.316406 81.359375 281.164062 81.210938 280.898438 C 81.070312 280.652344 81.015625 280.378906 81.054688 280.089844 C 81.09375 279.796875 81.226562 279.585938 81.449219 279.460938 L 81.636719 279.425781 L 81.777344 279.394531 C 87.8125 277.75 93.585938 275.816406 99.097656 273.601562 C 99.179688 273.554688 99.320312 273.488281 99.527344 273.40625 C 99.734375 273.308594 100.027344 273.167969 100.402344 272.980469 C 101.199219 272.609375 101.839844 272.335938 102.328125 272.15625 C 102.820312 271.964844 103.226562 271.890625 103.550781 271.925781 L 104.140625 272.964844 C 104.308594 273.257812 104.378906 273.542969 104.359375 273.824219 C 104.347656 274.105469 104.214844 274.3125 103.96875 274.453125 C 102.410156 275.339844 100.214844 276.871094 97.386719 279.042969 C 94.476562 281.25 92.382812 282.710938 91.113281 283.433594 C 90.992188 283.503906 90.699219 283.734375 90.242188 284.125 C 89.832031 284.5 89.554688 284.726562 89.414062 284.804688 C 89.269531 284.886719 88.714844 285.339844 87.742188 286.164062 C 86.859375 286.902344 86.277344 287.351562 85.992188 287.515625 L 85.964844 287.53125 C 85.511719 287.789062 85.132812 287.789062 84.828125 287.539062 Z M 89.5625 282.152344 C 89.839844 281.914062 90.203125 281.667969 90.652344 281.410156 C 92.496094 280.363281 94.757812 278.859375 97.4375 276.902344 L 100.457031 274.78125 C 95.140625 276.640625 91.164062 278.101562 88.519531 279.171875 C 88.492188 279.597656 88.839844 280.59375 89.5625 282.152344 Z M 89.5625 282.152344 "/>
<path style=" stroke:none;fill-rule:nonzero;fill:rgb(79.215686%,20.392157%,20%);fill-opacity:1;" d="M 102.984375 311.613281 C 102.714844 311.320312 102.679688 310.902344 102.875 310.359375 C 103.421875 310.214844 104.984375 308.953125 107.5625 306.574219 C 108.171875 306.015625 108.785156 305.363281 109.410156 304.625 L 110.089844 303.847656 C 110.511719 303.363281 110.84375 303.007812 111.085938 302.785156 L 111.761719 302.164062 C 112.035156 301.589844 112.550781 300.53125 113.308594 298.992188 C 114.058594 297.445312 114.707031 296.164062 115.246094 295.152344 C 115.855469 293.980469 116.328125 293.238281 116.65625 292.9375 L 116.789062 292.8125 L 117.78125 293.003906 C 118.019531 293.335938 117.925781 294 117.496094 294.996094 C 117.113281 295.863281 116.480469 297.019531 115.597656 298.460938 C 114.710938 299.898438 114.238281 300.648438 114.167969 300.710938 C 114.425781 300.609375 115.199219 300.148438 116.5 299.332031 C 117.800781 298.515625 118.996094 297.847656 120.085938 297.328125 C 121.203125 296.839844 121.90625 296.75 122.191406 297.058594 C 122.351562 297.234375 122.441406 297.4375 122.453125 297.65625 C 122.46875 297.886719 122.402344 298.066406 122.25 298.207031 C 121.363281 299.023438 119.894531 299.933594 117.839844 300.941406 C 115.609375 302.03125 114.105469 302.933594 113.324219 303.652344 L 105.507812 310.867188 C 104.351562 311.933594 103.511719 312.183594 102.984375 311.613281 Z M 102.984375 311.613281 "/>
<path style=" stroke:none;fill-rule:nonzero;fill:rgb(79.215686%,20.392157%,20%);fill-opacity:1;" d="M 154.300781 346.472656 C 153.863281 346.296875 153.527344 346.046875 153.292969 345.71875 C 153.054688 345.390625 153.007812 345.054688 153.148438 344.707031 C 153.824219 344.417969 154.582031 343.238281 155.421875 341.167969 C 155.925781 339.917969 156.5625 338.070312 157.324219 335.613281 C 158.027344 333.253906 158.640625 331.417969 159.171875 330.105469 L 159.972656 328.332031 C 160.203125 327.820312 160.457031 327.222656 160.730469 326.542969 C 160.976562 325.9375 161.179688 325.117188 161.347656 324.085938 C 161.476562 323 161.625 322.261719 161.78125 321.867188 C 162.09375 321.101562 163.089844 321.058594 164.773438 321.738281 L 165.265625 321.941406 C 166.441406 322.414062 167.320312 323.191406 167.910156 324.265625 C 168.351562 325.160156 168.582031 326.28125 168.597656 327.628906 C 168.605469 328.554688 168.449219 329.761719 168.121094 331.253906 C 167.757812 332.53125 167.433594 333.519531 167.152344 334.210938 L 166.730469 335.261719 L 166.105469 336.804688 C 166.023438 336.871094 165.964844 336.949219 165.929688 337.035156 C 165.859375 337.214844 165.816406 337.347656 165.808594 337.445312 C 165.796875 337.539062 165.761719 337.652344 165.707031 337.785156 C 165.425781 338.484375 164.984375 339.277344 164.386719 340.164062 C 163.78125 341.050781 163.082031 341.914062 162.289062 342.761719 C 160.332031 344.765625 158.539062 346.023438 156.910156 346.539062 C 155.957031 346.8125 155.085938 346.792969 154.300781 346.472656 Z M 155.761719 344.851562 C 156.769531 344.675781 157.773438 344.238281 158.773438 343.539062 C 159.761719 342.832031 160.660156 341.964844 161.457031 340.9375 C 162.910156 339.039062 164.078125 336.996094 164.964844 334.8125 C 165.441406 333.636719 165.851562 332.304688 166.199219 330.820312 C 166.511719 329.371094 166.496094 327.9375 166.152344 326.527344 C 165.992188 325.855469 165.6875 325.253906 165.234375 324.726562 C 164.78125 324.207031 164.199219 323.800781 163.480469 323.507812 L 163.46875 323.539062 C 162.671875 325.503906 161.601562 328.527344 160.257812 332.609375 C 158.921875 336.667969 157.84375 339.710938 157.023438 341.734375 Z M 155.761719 344.851562 "/>
<path style=" stroke:none;fill-rule:nonzero;fill:rgb(79.215686%,20.392157%,20%);fill-opacity:1;" d="M 189.898438 356.542969 C 189.59375 356.5 189.335938 356.351562 189.121094 356.105469 C 188.910156 355.859375 188.8125 355.585938 188.828125 355.277344 L 188.960938 354.367188 L 189.058594 353.671875 C 189.070312 353.457031 189.09375 353.210938 189.132812 352.9375 C 189.203125 352.441406 189.277344 351.691406 189.351562 350.679688 L 189.597656 348.429688 C 189.761719 347.289062 190.042969 345.59375 190.4375 343.339844 C 190.828125 341.324219 191.121094 339.628906 191.320312 338.253906 C 191.363281 337.929688 191.398438 337.4375 191.421875 336.773438 C 191.449219 336.085938 191.484375 335.589844 191.53125 335.289062 C 191.769531 333.632812 192.375 332.875 193.355469 333.015625 C 194.121094 333.125 194.992188 333.402344 195.964844 333.851562 C 196.933594 334.300781 197.390625 334.738281 197.328125 335.160156 C 197.296875 335.390625 197.164062 335.59375 196.929688 335.761719 C 196.703125 335.929688 196.445312 336.054688 196.152344 336.132812 C 195.222656 335.640625 194.371094 335.28125 193.589844 335.054688 C 193.570312 335.40625 193.511719 335.90625 193.417969 336.5625 C 193.285156 337.492188 193.148438 338.328125 193.011719 339.070312 C 192.78125 340.179688 192.625 341.015625 192.546875 341.570312 L 192.570312 342.148438 L 193.136719 342.195312 C 193.328125 342.203125 193.5625 342.226562 193.839844 342.265625 C 194.957031 342.425781 195.472656 342.832031 195.378906 343.476562 C 195.34375 343.738281 195.207031 343.941406 194.96875 344.089844 C 194.738281 344.226562 194.460938 344.273438 194.128906 344.226562 C 193.710938 344.167969 193.390625 344.097656 193.164062 344.023438 L 192.289062 343.898438 C 192.25 344.511719 192.148438 345.398438 191.980469 346.5625 C 191.8125 347.730469 191.648438 348.777344 191.484375 349.703125 C 191.210938 351.117188 191.023438 352.171875 190.921875 352.871094 C 190.734375 354.175781 190.667969 354.828125 190.714844 354.835938 L 191.871094 354.96875 C 192.269531 355.007812 192.75 355.0625 193.3125 355.144531 C 194.195312 355.273438 194.59375 355.613281 194.515625 356.167969 C 194.46875 356.492188 194.289062 356.722656 193.976562 356.859375 C 193.660156 356.992188 193.292969 357.03125 192.871094 356.96875 Z M 189.898438 356.542969 "/>
<path style=" stroke:none;fill-rule:nonzero;fill:rgb(79.215686%,20.392157%,20%);fill-opacity:1;" d="M 225.539062 357 L 224.824219 356.539062 C 224.546875 353.847656 224 351.085938 223.191406 348.257812 C 222.390625 345.429688 221.234375 341.984375 219.726562 337.925781 C 219.65625 337.695312 219.511719 337.34375 219.296875 336.863281 C 218.742188 335.597656 218.445312 334.789062 218.410156 334.433594 C 218.390625 334.226562 218.457031 334.03125 218.617188 333.84375 C 218.769531 333.660156 218.953125 333.5625 219.164062 333.539062 C 219.519531 333.503906 219.878906 333.761719 220.246094 334.316406 C 220.605469 334.847656 220.964844 335.570312 221.320312 336.492188 C 221.679688 337.414062 222.085938 338.5625 222.535156 339.941406 C 222.949219 341.246094 223.5 343.257812 224.191406 345.984375 L 224.535156 347.335938 L 225.285156 350.414062 C 225.46875 351.273438 225.613281 351.890625 225.722656 352.257812 C 225.953125 349.628906 226.199219 345.839844 226.464844 340.886719 C 226.664062 336.652344 226.816406 333.757812 226.917969 332.207031 L 227.683594 332.128906 C 227.894531 332.105469 228.089844 332.160156 228.269531 332.292969 C 228.453125 332.433594 228.558594 332.601562 228.578125 332.808594 C 228.667969 333.660156 228.660156 334.578125 228.554688 335.570312 C 228.457031 336.5625 228.28125 337.757812 228.023438 339.15625 C 227.820312 340.359375 227.695312 341.257812 227.652344 341.859375 C 227.605469 342.457031 227.601562 343.394531 227.640625 344.671875 C 227.746094 347.523438 227.714844 350.09375 227.550781 352.378906 C 227.4375 353.765625 227.207031 354.871094 226.863281 355.691406 C 226.523438 356.507812 226.082031 356.945312 225.539062 357 Z M 225.539062 357 "/>
<path style=" stroke:none;fill-rule:nonzero;fill:rgb(79.215686%,20.392157%,20%);fill-opacity:1;" d="M 259.066406 349.480469 C 258.777344 349.582031 258.480469 349.570312 258.171875 349.453125 C 257.875 349.328125 257.660156 349.128906 257.535156 348.851562 L 257.230469 347.984375 L 257 347.316406 C 256.910156 347.121094 256.816406 346.894531 256.726562 346.632812 C 256.5625 346.164062 256.28125 345.460938 255.878906 344.53125 L 255.0625 342.417969 C 254.683594 341.328125 254.152344 339.691406 253.464844 337.511719 C 252.886719 335.542969 252.367188 333.902344 251.910156 332.59375 C 251.800781 332.285156 251.605469 331.828125 251.320312 331.226562 C 251.027344 330.605469 250.828125 330.148438 250.730469 329.859375 C 250.179688 328.28125 250.371094 327.328125 251.304688 327 C 252.039062 326.746094 252.9375 326.59375 254.007812 326.546875 C 255.074219 326.496094 255.679688 326.675781 255.820312 327.078125 C 255.898438 327.300781 255.871094 327.539062 255.742188 327.792969 C 255.621094 328.046875 255.449219 328.277344 255.226562 328.484375 C 254.175781 328.472656 253.25 328.546875 252.453125 328.703125 C 252.59375 329.023438 252.773438 329.496094 252.992188 330.121094 C 253.300781 331.007812 253.566406 331.8125 253.789062 332.535156 C 254.09375 333.628906 254.339844 334.441406 254.523438 334.972656 L 254.8125 335.46875 L 255.335938 335.253906 C 255.511719 335.171875 255.730469 335.082031 255.992188 334.992188 C 257.058594 334.617188 257.703125 334.742188 257.917969 335.359375 C 258.003906 335.609375 257.976562 335.851562 257.832031 336.089844 C 257.695312 336.320312 257.464844 336.488281 257.152344 336.601562 C 256.753906 336.738281 256.4375 336.824219 256.203125 336.863281 L 255.367188 337.152344 C 255.613281 337.714844 255.929688 338.550781 256.320312 339.660156 C 256.707031 340.777344 257.042969 341.78125 257.328125 342.679688 C 257.734375 344.058594 258.050781 345.082031 258.285156 345.75 C 258.71875 346.992188 258.957031 347.605469 259.003906 347.589844 L 260.09375 347.175781 C 260.464844 347.023438 260.917969 346.855469 261.453125 346.667969 C 262.292969 346.375 262.804688 346.492188 262.992188 347.023438 C 263.101562 347.332031 263.046875 347.621094 262.828125 347.886719 C 262.609375 348.148438 262.300781 348.351562 261.898438 348.492188 Z M 259.066406 349.480469 "/>
<path style=" stroke:none;fill-rule:nonzero;fill:rgb(79.215686%,20.392157%,20%);fill-opacity:1;" d="M 292.617188 332.65625 C 291.75 332.871094 290.789062 333.3125 289.738281 333.980469 C 289.546875 334.382812 289.269531 334.699219 288.910156 334.925781 C 288.675781 335.078125 288.410156 335.101562 288.113281 335.007812 C 287.804688 334.90625 287.574219 334.738281 287.421875 334.496094 C 286.355469 332.828125 285.011719 330.558594 283.382812 327.6875 C 281.613281 324.65625 280.257812 322.402344 279.320312 320.933594 L 279.1875 320.726562 C 278.277344 319.550781 277.625 318.652344 277.230469 318.035156 C 276.027344 316.148438 275.773438 314.988281 276.464844 314.546875 C 276.664062 314.421875 276.882812 314.386719 277.128906 314.441406 C 277.371094 314.488281 277.558594 314.613281 277.6875 314.816406 C 277.835938 315.050781 278.046875 315.445312 278.316406 316 C 278.574219 316.539062 278.785156 316.933594 278.949219 317.191406 C 279.796875 318.523438 280.574219 319.71875 281.28125 320.773438 C 281.972656 321.816406 282.742188 323.003906 283.585938 324.328125 C 283.675781 324.695312 283.890625 325.144531 284.230469 325.679688 L 284.460938 326.039062 L 285.90625 328.421875 C 286.308594 329.148438 286.792969 329.957031 287.363281 330.847656 C 288.234375 332.21875 289 332.695312 289.652344 332.277344 C 289.695312 332.25 289.757812 332.207031 289.84375 332.140625 C 289.925781 332.070312 290.046875 331.988281 290.203125 331.886719 C 290.371094 331.757812 290.59375 331.601562 290.871094 331.425781 C 291.945312 330.738281 292.671875 330.695312 293.050781 331.289062 C 293.175781 331.488281 293.195312 331.710938 293.101562 331.964844 C 293.007812 332.21875 292.847656 332.449219 292.617188 332.65625 Z M 292.617188 332.65625 "/>
<path style=" stroke:none;fill-rule:nonzero;fill:rgb(79.215686%,20.392157%,20%);fill-opacity:1;" d="M 316.949219 311.910156 C 316.523438 312.351562 315.988281 312.625 315.347656 312.726562 C 314.710938 312.835938 314.039062 312.777344 313.335938 312.550781 C 311.824219 312.046875 310.402344 311.265625 309.070312 310.210938 C 307.769531 309.25 306.582031 308.257812 305.515625 307.230469 C 305.3125 307.035156 305.148438 306.863281 305.023438 306.714844 L 304.570312 306.277344 C 304.484375 306.191406 304.433594 306.15625 304.417969 306.175781 L 303.964844 305.734375 L 302.199219 303.996094 C 301.675781 303.453125 300.878906 302.550781 299.808594 301.292969 C 299.074219 300.425781 298.46875 299.46875 298.003906 298.425781 C 297.777344 297.980469 297.667969 297.578125 297.671875 297.214844 C 297.667969 296.859375 297.78125 296.5625 298.007812 296.324219 C 298.664062 295.644531 299.375 295.152344 300.140625 294.851562 C 300.910156 294.542969 301.695312 294.417969 302.496094 294.464844 C 303.25 294.539062 304.050781 294.753906 304.902344 295.109375 C 305.75 295.46875 306.570312 295.933594 307.359375 296.496094 C 308.171875 297.082031 308.976562 297.757812 309.777344 298.527344 L 309.976562 298.722656 C 310.507812 299.230469 310.988281 299.679688 311.421875 300.066406 L 312.898438 301.445312 C 317.785156 306.152344 319.136719 309.640625 316.949219 311.910156 Z M 315.78125 310.980469 C 316.074219 310.679688 316.21875 310.28125 316.222656 309.789062 C 316.21875 309.300781 316.070312 308.78125 315.777344 308.234375 C 315.226562 307.082031 314.480469 305.988281 313.539062 304.953125 C 312.761719 304.035156 312.058594 303.273438 311.425781 302.664062 C 310.664062 301.929688 309.605469 301.027344 308.25 299.960938 C 306.847656 298.800781 305.824219 297.910156 305.179688 297.285156 L 304.726562 296.847656 C 304.042969 296.261719 303.273438 295.941406 302.410156 295.878906 C 301.554688 295.828125 300.847656 296.085938 300.296875 296.660156 C 299.738281 297.238281 299.699219 297.941406 300.183594 298.761719 C 300.542969 299.433594 301.140625 300.175781 301.976562 300.980469 C 302.296875 301.285156 302.570312 301.535156 302.808594 301.734375 L 303.5 302.398438 L 304.625 303.570312 C 304.945312 303.949219 305.316406 304.339844 305.742188 304.75 C 306.660156 305.636719 307.59375 306.484375 308.539062 307.296875 C 309.875 308.453125 311.277344 309.476562 312.742188 310.367188 C 314.261719 311.304688 315.273438 311.511719 315.78125 310.980469 Z M 315.78125 310.980469 "/>
<path style=" stroke:none;fill-rule:nonzero;fill:rgb(79.215686%,20.392157%,20%);fill-opacity:1;" d="M 337.226562 284.710938 L 336.488281 285.132812 C 335.257812 284.769531 333.6875 284.03125 331.773438 282.917969 L 329.085938 281.273438 C 328.296875 280.757812 327.40625 280.210938 326.410156 279.628906 C 326.054688 279.585938 325.765625 279.5 325.539062 279.367188 L 325.445312 279.3125 C 325.175781 278.882812 324.363281 278.273438 323.003906 277.480469 L 321.617188 276.636719 C 321.183594 276.347656 320.6875 276.042969 320.132812 275.722656 C 318.933594 275.023438 317.941406 274.554688 317.15625 274.320312 C 316.90625 274.089844 316.714844 273.84375 316.585938 273.578125 C 316.457031 273.3125 316.449219 273.074219 316.570312 272.867188 L 317.351562 271.527344 C 317.683594 270.957031 318.101562 270.53125 318.601562 270.253906 C 319.109375 269.972656 319.664062 269.859375 320.257812 269.910156 C 321.328125 269.988281 322.433594 270.363281 323.574219 271.03125 C 324.386719 271.503906 325.019531 271.886719 325.476562 272.175781 C 326.042969 272.5625 326.523438 272.980469 326.921875 273.425781 C 327.152344 273.640625 327.320312 273.855469 327.429688 274.066406 C 327.535156 274.277344 327.648438 274.558594 327.765625 274.90625 C 327.953125 275.394531 328.007812 276.050781 327.925781 276.878906 C 327.914062 277.226562 327.847656 277.648438 327.722656 278.144531 L 330.988281 280.046875 L 332.976562 281.132812 L 333.964844 281.621094 C 335.148438 282.207031 336.136719 282.726562 336.929688 283.191406 C 337.175781 283.335938 337.324219 283.558594 337.378906 283.859375 C 337.433594 284.164062 337.382812 284.449219 337.226562 284.710938 Z M 326.492188 277.390625 C 327.007812 276.082031 325.636719 274.480469 322.382812 272.585938 C 321.792969 272.238281 321.316406 272.003906 320.957031 271.875 C 320.675781 271.792969 320.429688 271.757812 320.214844 271.765625 C 320.003906 271.78125 319.785156 271.859375 319.570312 272.007812 C 319.316406 272.15625 319.113281 272.363281 318.960938 272.628906 C 318.941406 272.617188 318.867188 272.726562 318.734375 272.953125 L 320.46875 273.964844 C 321.667969 274.664062 322.746094 275.273438 323.699219 275.796875 C 324.757812 276.414062 325.453125 276.808594 325.789062 276.980469 L 326.429688 277.351562 Z M 326.492188 277.390625 "/>
<path style=" stroke:none;fill-rule:nonzero;fill:rgb(79.215686%,20.392157%,20%);fill-opacity:1;" d="M 350.183594 254.652344 C 349.992188 255.03125 349.742188 255.332031 349.429688 255.546875 C 349.117188 255.757812 348.773438 255.832031 348.398438 255.765625 L 347.945312 255.214844 C 347.988281 255.078125 348.097656 254.875 348.277344 254.613281 C 348.445312 254.300781 348.558594 254.050781 348.617188 253.867188 C 348.742188 253.464844 348.671875 253.046875 348.414062 252.609375 C 348.152344 252.171875 347.753906 251.78125 347.21875 251.445312 C 346.234375 250.820312 345.316406 250.378906 344.457031 250.113281 C 342.964844 249.652344 341.257812 249.640625 339.328125 250.074219 L 338.570312 250.253906 C 337.695312 250.453125 336.921875 250.609375 336.246094 250.71875 C 335.570312 250.832031 334.863281 250.886719 334.128906 250.882812 C 333.167969 250.875 332.25 250.738281 331.371094 250.464844 C 330.378906 250.160156 329.410156 249.613281 328.46875 248.832031 C 328.019531 248.449219 327.699219 248 327.5 247.484375 C 327.300781 246.96875 327.28125 246.449219 327.445312 245.925781 C 327.570312 245.523438 327.8125 245.1875 328.179688 244.921875 C 328.546875 244.648438 328.910156 244.566406 329.269531 244.675781 C 329.472656 244.742188 329.609375 244.871094 329.675781 245.070312 C 329.734375 245.261719 329.730469 245.46875 329.664062 245.691406 C 329.585938 245.9375 329.445312 246.152344 329.238281 246.332031 C 329.113281 246.839844 329.429688 247.367188 330.191406 247.921875 C 330.90625 248.410156 331.519531 248.734375 332.039062 248.894531 C 332.691406 249.097656 333.378906 249.199219 334.109375 249.210938 C 334.832031 249.210938 335.511719 249.136719 336.152344 248.992188 L 337.730469 248.664062 L 340.320312 248.164062 C 341.046875 248.046875 341.859375 248.023438 342.746094 248.089844 C 343.644531 248.148438 344.519531 248.3125 345.378906 248.578125 C 346.746094 249 347.949219 249.714844 348.992188 250.730469 C 349.527344 251.238281 349.898438 251.839844 350.101562 252.535156 C 350.304688 253.226562 350.300781 253.921875 350.082031 254.621094 Z M 350.183594 254.652344 "/>
<path style=" stroke:none;fill-rule:nonzero;fill:rgb(100%,100%,100%);fill-opacity:1;" d="M 64.644531 210.355469 C 64.644531 204.382812 69.484375 199.542969 75.453125 199.542969 C 81.421875 199.542969 86.261719 204.382812 86.261719 210.355469 C 86.261719 216.324219 81.421875 221.164062 75.453125 221.164062 C 69.480469 221.164062 64.640625 216.324219 64.644531 210.355469 Z M 64.644531 210.355469 "/>
<path style=" stroke:none;fill-rule:nonzero;fill:rgb(100%,100%,100%);fill-opacity:1;" d="M 333.738281 210.355469 C 333.738281 204.382812 338.578125 199.542969 344.546875 199.542969 C 350.519531 199.542969 355.359375 204.382812 355.355469 210.355469 C 355.355469 216.324219 350.515625 221.164062 344.546875 221.164062 C 338.578125 221.164062 333.738281 216.324219 333.738281 210.355469 Z M 333.738281 210.355469 "/>
</g>
</svg>
